<svg width="115" height="43" viewBox="0 0 115 43" fill="none" xmlns="http://www.w3.org/2000/svg">
<path d="M62.0083 17.1797C61.9088 16.2493 61.4898 15.5249 60.7512 15.0064C60.0196 14.4879 59.0679 14.2287 57.896 14.2287C57.0722 14.2287 56.3655 14.353 55.776 14.6016C55.1865 14.8501 54.7355 15.1875 54.423 15.6136C54.1105 16.0398 53.9507 16.5263 53.9436 17.0732C53.9436 17.5277 54.0466 17.9219 54.2526 18.2557C54.4656 18.5895 54.7533 18.8736 55.1155 19.108C55.4777 19.3352 55.879 19.527 56.3193 19.6832C56.7597 19.8395 57.2036 19.9709 57.651 20.0774L59.6965 20.5888C60.5203 20.7805 61.3122 21.0398 62.0722 21.3665C62.8392 21.6932 63.5246 22.1051 64.1283 22.6023C64.7391 23.0994 65.222 23.6996 65.5771 24.4027C65.9323 25.1058 66.1098 25.9297 66.1098 26.8743C66.1098 28.1527 65.7831 29.2784 65.1297 30.2514C64.4763 31.2173 63.5317 31.9737 62.2959 32.5206C61.0672 33.0604 59.5793 33.3303 57.8321 33.3303C56.1347 33.3303 54.661 33.0675 53.411 32.5419C52.1681 32.0163 51.195 31.2493 50.4919 30.2408C49.7959 29.2322 49.4195 28.0036 49.3627 26.5547H53.2512C53.308 27.3146 53.5423 27.9467 53.9543 28.451C54.3662 28.9553 54.9024 29.3317 55.5629 29.5803C56.2306 29.8288 56.9763 29.9531 57.8002 29.9531C58.6595 29.9531 59.4124 29.8253 60.0587 29.5696C60.7121 29.3068 61.2235 28.9446 61.5928 28.483C61.9621 28.0142 62.1503 27.4673 62.1574 26.8423C62.1503 26.2741 61.9834 25.8054 61.6567 25.4361C61.33 25.0597 60.8719 24.7472 60.2824 24.4986C59.7 24.2429 59.0182 24.0156 58.2369 23.8168L55.7547 23.1776C53.9578 22.7159 52.5374 22.0163 51.4933 21.0788C50.4564 20.1342 49.9379 18.8807 49.9379 17.3182C49.9379 16.0327 50.286 14.907 50.982 13.9411C51.6851 12.9751 52.6404 12.2259 53.8477 11.6932C55.0551 11.1534 56.4223 10.8835 57.9493 10.8835C59.4976 10.8835 60.8541 11.1534 62.0189 11.6932C63.1908 12.2259 64.1105 12.968 64.7781 13.9197C65.4458 14.8643 65.7902 15.951 65.8115 17.1797H62.0083ZM69.6334 33V11.1818H77.9857C79.5624 11.1818 80.8728 11.4304 81.9168 11.9276C82.968 12.4176 83.7528 13.0888 84.2712 13.9411C84.7968 14.7933 85.0596 15.7592 85.0596 16.8388C85.0596 17.7266 84.8891 18.4865 84.5482 19.1186C84.2073 19.7436 83.7492 20.2514 83.1739 20.642C82.5986 21.0327 81.9559 21.3132 81.2457 21.4837V21.6967C82.0198 21.7393 82.762 21.9773 83.4722 22.4105C84.1895 22.8366 84.7755 23.4403 85.23 24.2216C85.6846 25.0028 85.9118 25.9474 85.9118 27.0554C85.9118 28.1847 85.6384 29.2003 85.0915 30.1023C84.5447 30.9972 83.7208 31.7038 82.6199 32.2223C81.5191 32.7408 80.1341 33 78.4651 33H69.6334ZM73.5858 29.6974H77.8366C79.2712 29.6974 80.3046 29.424 80.9367 28.8771C81.5759 28.3232 81.8955 27.6129 81.8955 26.7464C81.8955 26.1001 81.7357 25.5178 81.4161 24.9993C81.0965 24.4737 80.642 24.0618 80.0525 23.7635C79.463 23.4581 78.7599 23.3054 77.9431 23.3054H73.5858V29.6974ZM73.5858 20.4609H77.4957C78.1775 20.4609 78.7918 20.3366 79.3387 20.0881C79.8856 19.8324 80.3153 19.4737 80.6278 19.0121C80.9474 18.5433 81.1072 17.9893 81.1072 17.3501C81.1072 16.505 80.8089 15.8089 80.2123 15.2621C79.6228 14.7152 78.7457 14.4418 77.5809 14.4418H73.5858V20.4609ZM89.3502 11.1818H94.1869L100.664 26.9915H100.92L107.397 11.1818H112.234V33H108.441V18.0107H108.239L102.209 32.9361H99.3751L93.3453 17.9787H93.1428V33H89.3502V11.1818Z" fill="white"/>
<rect x="15.7324" y="3.53711" width="34.6053" height="17.3026" rx="8.65132" transform="rotate(45 15.7324 3.53711)" fill="white"/>
<path d="M35.42 7.19734L35.4197 21.3867L21.0763 7.14309L35.42 7.19734Z" fill="#F0F0F0"/>
<path d="M7.49984 35.9301L7.49983 22L21.5467 35.93L7.49984 35.9301Z" fill="#F0F0F0"/>
</svg>
