<svg width="115" height="43" viewBox="0 0 115 43" fill="none" xmlns="http://www.w3.org/2000/svg">
<path d="M61.4604 17.1797C61.361 16.2493 60.9419 15.5249 60.2033 15.0064C59.4718 14.4879 58.5201 14.2287 57.3482 14.2287C56.5243 14.2287 55.8176 14.353 55.2282 14.6016C54.6387 14.8501 54.1877 15.1875 53.8752 15.6136C53.5627 16.0398 53.4029 16.5263 53.3958 17.0732C53.3958 17.5277 53.4988 17.9219 53.7047 18.2557C53.9178 18.5895 54.2054 18.8736 54.5676 19.108C54.9299 19.3352 55.3311 19.527 55.7715 19.6832C56.2118 19.8395 56.6557 19.9709 57.1032 20.0774L59.1486 20.5888C59.9725 20.7805 60.7644 21.0398 61.5243 21.3665C62.2914 21.6932 62.9767 22.1051 63.5804 22.6023C64.1912 23.0994 64.6742 23.6996 65.0293 24.4027C65.3844 25.1058 65.562 25.9297 65.562 26.8743C65.562 28.1527 65.2353 29.2784 64.5819 30.2514C63.9284 31.2173 62.9838 31.9737 61.748 32.5206C60.5194 33.0604 59.0314 33.3303 57.2843 33.3303C55.5868 33.3303 54.1131 33.0675 52.8631 32.5419C51.6202 32.0163 50.6472 31.2493 49.9441 30.2408C49.248 29.2322 48.8716 28.0036 48.8148 26.5547H52.7033C52.7601 27.3146 52.9945 27.9467 53.4064 28.451C53.8184 28.9553 54.3546 29.3317 55.0151 29.5803C55.6827 29.8288 56.4284 29.9531 57.2523 29.9531C58.1117 29.9531 58.8645 29.8253 59.5108 29.5696C60.1642 29.3068 60.6756 28.9446 61.0449 28.483C61.4142 28.0142 61.6025 27.4673 61.6096 26.8423C61.6025 26.2741 61.4355 25.8054 61.1088 25.4361C60.7821 25.0597 60.324 24.7472 59.7346 24.4986C59.1522 24.2429 58.4703 24.0156 57.6891 23.8168L55.2069 23.1776C53.41 22.7159 51.9895 22.0163 50.9455 21.0788C49.9086 20.1342 49.3901 18.8807 49.3901 17.3182C49.3901 16.0327 49.7381 14.907 50.4341 13.9411C51.1373 12.9751 52.0925 12.2259 53.2999 11.6932C54.5073 11.1534 55.8745 10.8835 57.4015 10.8835C58.9498 10.8835 60.3063 11.1534 61.4711 11.6932C62.6429 12.2259 63.5627 12.968 64.2303 13.9197C64.8979 14.8643 65.2424 15.951 65.2637 17.1797H61.4604ZM69.0856 33V11.1818H77.4379C79.0146 11.1818 80.3249 11.4304 81.369 11.9276C82.4201 12.4176 83.2049 13.0888 83.7234 13.9411C84.2489 14.7933 84.5117 15.7592 84.5117 16.8388C84.5117 17.7266 84.3413 18.4865 84.0004 19.1186C83.6594 19.7436 83.2013 20.2514 82.6261 20.642C82.0508 21.0327 81.408 21.3132 80.6978 21.4837V21.6967C81.4719 21.7393 82.2141 21.9773 82.9244 22.4105C83.6417 22.8366 84.2276 23.4403 84.6822 24.2216C85.1367 25.0028 85.364 25.9474 85.364 27.0554C85.364 28.1847 85.0906 29.2003 84.5437 30.1023C83.9968 30.9972 83.1729 31.7038 82.0721 32.2223C80.9712 32.7408 79.5863 33 77.9173 33H69.0856ZM73.038 29.6974H77.2887C78.7234 29.6974 79.7567 29.424 80.3888 28.8771C81.0281 28.3232 81.3477 27.6129 81.3477 26.7464C81.3477 26.1001 81.1879 25.5178 80.8683 24.9993C80.5487 24.4737 80.0941 24.0618 79.5046 23.7635C78.9151 23.4581 78.212 23.3054 77.3952 23.3054H73.038V29.6974ZM73.038 20.4609H76.9478C77.6296 20.4609 78.244 20.3366 78.7908 20.0881C79.3377 19.8324 79.7674 19.4737 80.0799 19.0121C80.3995 18.5433 80.5593 17.9893 80.5593 17.3501C80.5593 16.505 80.261 15.8089 79.6644 15.2621C79.0749 14.7152 78.1978 14.4418 77.033 14.4418H73.038V20.4609ZM88.8024 11.1818H93.639L100.116 26.9915H100.372L106.849 11.1818H111.686V33H107.893V18.0107H107.691L101.661 32.9361H98.8272L92.7974 17.9787H92.595V33H88.8024V11.1818Z" fill="#155BD5"/>
<rect x="15.1846" y="3.53711" width="34.6053" height="17.3026" rx="8.65132" transform="rotate(45 15.1846 3.53711)" fill="#155BD5"/>
<path d="M34.8721 7.19734L34.8719 21.3867L20.5284 7.14309L34.8721 7.19734Z" fill="#155BD5" fill-opacity="0.5"/>
<path d="M6.95198 35.9301L6.95198 22L20.9988 35.93L6.95198 35.9301Z" fill="#155BD5" fill-opacity="0.5"/>
</svg>
